<svg id="visual" viewBox="0 0 900 600" width="900" height="600" xmlns="http://www.w3.org/2000/svg" xmlns:xlink="http://www.w3.org/1999/xlink" version="1.1"><rect x="0" y="0" width="900" height="600" fill="#000"></rect><defs><linearGradient id="grad1_0" x1="33.3%" y1="0%" x2="100%" y2="100%"><stop offset="20%" stop-color="#000000" stop-opacity="1"></stop><stop offset="80%" stop-color="#000000" stop-opacity="1"></stop></linearGradient></defs><defs><linearGradient id="grad2_0" x1="0%" y1="0%" x2="66.7%" y2="100%"><stop offset="20%" stop-color="#000000" stop-opacity="1"></stop><stop offset="80%" stop-color="#000000" stop-opacity="1"></stop></linearGradient></defs><g transform="translate(900, 0)"><path d="M0 540.8C-42.6 494.7 -85.3 448.6 -142.8 439.4C-200.3 430.1 -272.7 457.7 -317.9 437.5C-363.1 417.4 -381.2 349.5 -409.4 297.4C-437.5 245.4 -475.7 209.2 -499.3 162.2C-522.9 115.3 -531.9 57.7 -540.8 0L0 0Z" fill="#151618"></path></g><g transform="translate(0, 600)"><path d="M0 -540.8C56.7 -526.1 113.3 -511.4 157 -483.1C200.6 -454.9 231.3 -413.2 282.1 -388.3C333 -363.5 403.9 -355.4 437.5 -317.9C471.2 -280.4 467.4 -213.3 478.4 -155.4C489.4 -97.5 515.1 -48.8 540.8 0L0 0Z" fill="#151618"></path></g></svg>