<svg id="visual" viewBox="0 0 900 600" width="900" height="600" xmlns="http://www.w3.org/2000/svg" xmlns:xlink="http://www.w3.org/1999/xlink" version="1.1"><path d="M611 600L563 588.8C515 577.7 419 555.3 420.5 533.2C422 511 521 489 539 466.8C557 444.7 494 422.3 485 400C476 377.7 521 355.3 561.5 333.2C602 311 638 289 666.5 266.8C695 244.7 716 222.3 716 200C716 177.7 695 155.3 648.5 133.2C602 111 530 89 531.5 66.8C533 44.7 608 22.3 645.5 11.2L683 0L900 0L900 11.2C900 22.3 900 44.7 900 66.8C900 89 900 111 900 133.2C900 155.3 900 177.7 900 200C900 222.3 900 244.7 900 266.8C900 289 900 311 900 333.2C900 355.3 900 377.7 900 400C900 422.3 900 444.7 900 466.8C900 489 900 511 900 533.2C900 555.3 900 577.7 900 588.8L900 600Z" fill="#151618"></path><path d="M521 600L474.5 588.8C428 577.7 335 555.3 312.5 533.2C290 511 338 489 339.5 466.8C341 444.7 296 422.3 296 400C296 377.7 341 355.3 401 333.2C461 311 536 289 546.5 266.8C557 244.7 503 222.3 486.5 200C470 177.7 491 155.3 431 133.2C371 111 230 89 227 66.8C224 44.7 359 22.3 426.5 11.2L494 0L684 0L646.5 11.2C609 22.3 534 44.7 532.5 66.8C531 89 603 111 649.5 133.2C696 155.3 717 177.7 717 200C717 222.3 696 244.7 667.5 266.8C639 289 603 311 562.5 333.2C522 355.3 477 377.7 486 400C495 422.3 558 444.7 540 466.8C522 489 423 511 421.5 533.2C420 555.3 516 577.7 564 588.8L612 600Z" fill="#000000"></path><path d="M0 600L0 588.8C0 577.7 0 555.3 0 533.2C0 511 0 489 0 466.8C0 444.7 0 422.3 0 400C0 377.7 0 355.3 0 333.2C0 311 0 289 0 266.8C0 244.7 0 222.3 0 200C0 177.7 0 155.3 0 133.2C0 111 0 89 0 66.8C0 44.7 0 22.3 0 11.2L0 0L495 0L427.5 11.2C360 22.3 225 44.7 228 66.8C231 89 372 111 432 133.2C492 155.3 471 177.7 487.5 200C504 222.3 558 244.7 547.5 266.8C537 289 462 311 402 333.2C342 355.3 297 377.7 297 400C297 422.3 342 444.7 340.5 466.8C339 489 291 511 313.5 533.2C336 555.3 429 577.7 475.5 588.8L522 600Z" fill="#151618"></path></svg>